<svg width="54" height="54" viewBox="0 0 54 54" fill="none" xmlns="http://www.w3.org/2000/svg">
<g id="chart-pie" filter="url(#filter0_d_1_100)">
<path id="combo shape" fill-rule="evenodd" clip-rule="evenodd" d="M31.6804 14.2435C30.6847 13.7113 29.6089 13.3545 28.5 13.1851V3.05616C31.2687 3.26439 33.9696 4.04739 36.428 5.36141C39.3286 6.91184 41.8022 9.15371 43.6294 11.8884C45.4567 14.6231 46.5814 17.7663 46.9037 21.0395C46.9188 21.1929 46.9322 21.3463 46.9437 21.4998H36.8148C36.5956 20.0653 36.0641 18.6939 35.2555 17.4837C34.3484 16.1261 33.1204 15.0132 31.6804 14.2435ZM15.8886 6.37044C18.7604 4.45158 22.0727 3.3139 25.5 3.05615V13.1851C24.0693 13.4037 22.6974 13.9336 21.4839 14.7444C19.8511 15.8354 18.5785 17.386 17.8271 19.2003C17.0756 21.0145 16.8789 23.0108 17.262 24.9368C17.5468 26.3682 18.1422 27.713 18.9993 28.8793L11.8371 36.0415C9.59583 33.4358 8.05812 30.2892 7.3843 26.9016C6.6126 23.022 7.00867 19.0007 8.52242 15.3462C10.0362 11.6916 12.5996 8.56807 15.8886 6.37044ZM13.9584 38.1628C16.0635 39.9734 18.5269 41.3295 21.1944 42.1386C24.3418 43.0934 27.676 43.2572 30.9019 42.6155C34.0977 41.9799 37.0893 40.5731 39.6168 38.5181L30.6027 32.2519C30.0646 32.4614 29.5074 32.6244 28.9371 32.7378C27.3356 33.0563 25.6804 32.975 24.1179 32.501C23.0375 32.1733 22.0246 31.6649 21.1206 31.0006L13.9584 38.1628ZM36.173 26.7994C36.4798 26.0587 36.6946 25.2864 36.8148 24.4998H46.9437C46.7851 26.6086 46.2925 28.6863 45.4776 30.6535C44.5998 32.7727 43.367 34.7181 41.8389 36.4091L33.431 30.5644C34.63 29.5451 35.5702 28.2548 36.173 26.7994Z" fill="white"/>
</g>
<defs>
<filter id="filter0_d_1_100" x="0" y="0.0561523" width="53.9437" height="53.9437" filterUnits="userSpaceOnUse" color-interpolation-filters="sRGB">
<feFlood flood-opacity="0" result="BackgroundImageFix"/>
<feColorMatrix in="SourceAlpha" type="matrix" values="0 0 0 0 0 0 0 0 0 0 0 0 0 0 0 0 0 0 127 0" result="hardAlpha"/>
<feOffset dy="4"/>
<feGaussianBlur stdDeviation="3.5"/>
<feComposite in2="hardAlpha" operator="out"/>
<feColorMatrix type="matrix" values="0 0 0 0 0.388451 0 0 0 0 0.459239 0 0 0 0 0.484722 0 0 0 0.8 0"/>
<feBlend mode="normal" in2="BackgroundImageFix" result="effect1_dropShadow_1_100"/>
<feBlend mode="normal" in="SourceGraphic" in2="effect1_dropShadow_1_100" result="shape"/>
</filter>
</defs>
</svg>
