<svg width="54" height="54" viewBox="0 0 54 54" fill="none" xmlns="http://www.w3.org/2000/svg">
<g id="physics" filter="url(#filter0_d_1_75)">
<path id="Combo shape" fill-rule="evenodd" clip-rule="evenodd" d="M11.3525 7.35247C11.8896 6.81533 12.7764 6.46409 14.1644 6.50282C15.5567 6.54167 17.3074 6.97576 19.3204 7.83846C20.9278 8.52737 22.6558 9.46947 24.4397 10.641C22.6955 12.014 20.9522 13.56 19.2562 15.2561C17.56 16.9522 16.0141 18.6956 14.6409 20.4398C13.4695 18.6559 12.5274 16.9279 11.8385 15.3204C10.9758 13.3074 10.5417 11.5567 10.5028 10.1644C10.4641 8.77643 10.8153 7.88962 11.3525 7.35247ZM20.5021 5.08103C22.5655 5.96532 24.7645 7.20419 27 8.74891C29.2354 7.2042 31.4345 5.96534 33.4978 5.08105C35.7178 4.1296 37.8541 3.55696 39.7518 3.50401C41.654 3.45093 43.4604 3.92279 44.7688 5.23118C46.0771 6.53957 46.549 8.34598 46.4959 10.2481C46.443 12.1459 45.8703 14.2821 44.9189 16.5022C44.0346 18.5655 42.7957 20.7646 41.251 23.0001C42.7957 25.2354 44.0345 27.4344 44.9187 29.4977C45.8702 31.7178 46.4428 33.854 46.4957 35.7518C46.5488 37.6539 46.077 39.4603 44.7686 40.7687C43.4602 42.0771 41.6538 42.549 39.7517 42.4959C37.8539 42.4429 35.7176 41.8703 33.4976 40.9189C31.4343 40.0346 29.2353 38.7958 27 37.2511C24.7646 38.7958 22.5656 40.0346 20.5023 40.9189C18.2823 41.8703 16.146 42.443 14.2482 42.4959C12.3461 42.549 10.5397 42.0771 9.23133 40.7687C7.92295 39.4604 7.45109 37.6539 7.50417 35.7518C7.55712 33.854 8.12976 31.7178 9.0812 29.4977C9.96546 27.4345 11.2043 25.2354 12.7489 23.0001C11.2042 20.7646 9.96532 18.5655 9.08102 16.5022C8.12958 14.2821 7.55694 12.1459 7.50399 10.2481C7.45091 8.34596 7.92277 6.53954 9.23115 5.23116C10.5395 3.92277 12.3459 3.45091 14.2481 3.50399C16.1458 3.55694 18.2821 4.12958 20.5021 5.08103ZM21.3775 17.3774C23.2315 15.5233 25.1291 13.8734 27 12.4534C28.8709 13.8734 30.7684 15.5233 32.6224 17.3774C34.4765 19.2315 36.1265 21.1291 37.5465 23.0001C36.1265 24.871 34.4766 26.7685 32.6226 28.6226C30.7685 30.4767 28.8709 32.1266 27 33.5466C25.129 32.1266 23.2314 30.4767 21.3773 28.6225C19.5233 26.7685 17.8734 24.871 16.4534 23.0001C17.8734 21.1291 19.5234 19.2315 21.3775 17.3774ZM34.7437 15.256C36.4399 16.9522 37.9859 18.6956 39.359 20.4398C40.5305 18.6559 41.4725 16.9279 42.1615 15.3204C43.0242 13.3075 43.4582 11.5568 43.4971 10.1644C43.5358 8.77646 43.1846 7.88964 42.6474 7.3525C42.1103 6.81535 41.2235 6.46411 39.8355 6.50284C38.4432 6.54169 36.6925 6.97578 34.6796 7.83848C33.0721 8.52739 31.3441 9.46948 29.5602 10.641C31.3044 12.014 33.0477 13.56 34.7437 15.256ZM34.7439 30.7439C36.44 29.0478 37.9859 27.3045 39.359 25.5604C40.5304 27.3442 41.4724 29.0721 42.1613 30.6795C43.024 32.6924 43.4581 34.4431 43.4969 35.8355C43.5356 37.2234 43.1844 38.1103 42.6473 38.6474C42.1101 39.1846 41.2233 39.5358 39.8353 39.4971C38.443 39.4582 36.6923 39.0241 34.6794 38.1614C33.072 37.4725 31.344 36.5305 29.5602 35.3591C31.3045 33.986 33.0478 32.44 34.7439 30.7439ZM19.256 30.7439C20.9521 32.44 22.6955 33.986 24.4397 35.3591C22.6559 36.5305 20.9279 37.4726 19.3205 38.1614C17.3076 39.0241 15.5569 39.4582 14.1646 39.4971C12.7766 39.5358 11.8898 39.1846 11.3527 38.6474C10.8155 38.1103 10.4643 37.2235 10.503 35.8355C10.5419 34.4432 10.9759 32.6925 11.8386 30.6795C12.5275 29.0721 13.4696 27.3442 14.641 25.5604C16.014 27.3045 17.5599 29.0478 19.256 30.7439ZM27 27C29.2091 27 31 25.2091 31 23C31 20.7909 29.2091 19 27 19C24.7909 19 23 20.7909 23 23C23 25.2091 24.7909 27 27 27Z" fill="white"/>
</g>
<defs>
<filter id="filter0_d_1_75" x="0.5" y="0.5" width="52.9999" height="52.9999" filterUnits="userSpaceOnUse" color-interpolation-filters="sRGB">
<feFlood flood-opacity="0" result="BackgroundImageFix"/>
<feColorMatrix in="SourceAlpha" type="matrix" values="0 0 0 0 0 0 0 0 0 0 0 0 0 0 0 0 0 0 127 0" result="hardAlpha"/>
<feOffset dy="4"/>
<feGaussianBlur stdDeviation="3.5"/>
<feComposite in2="hardAlpha" operator="out"/>
<feColorMatrix type="matrix" values="0 0 0 0 0.388451 0 0 0 0 0.459239 0 0 0 0 0.484722 0 0 0 0.8 0"/>
<feBlend mode="normal" in2="BackgroundImageFix" result="effect1_dropShadow_1_75"/>
<feBlend mode="normal" in="SourceGraphic" in2="effect1_dropShadow_1_75" result="shape"/>
</filter>
</defs>
</svg>
