<svg width="34" height="34" viewBox="0 0 34 34" fill="none" xmlns="http://www.w3.org/2000/svg">
<g id="chart-pie" filter="url(#filter0_d_1_138)">
<path id="combo shape" fill-rule="evenodd" clip-rule="evenodd" d="M18.9872 3.19744C22.9158 3.98955 26.0104 7.08418 26.8025 11.0128C27.0209 12.0955 26.1046 13 25 13H19C17.8954 13 17 12.1046 17 11V4.99999C17 3.89542 17.9045 2.97913 18.9872 3.19744ZM7 14C7 9.19722 10.762 5.2731 15.5 5.01366V11C15.5 12.933 17.067 14.5 19 14.5H24.9863C24.7269 19.238 20.8028 23 16 23C11.0294 23 7 18.9706 7 14Z" fill="white"/>
</g>
<defs>
<filter id="filter0_d_1_138" x="0" y="0.165039" width="33.835" height="33.835" filterUnits="userSpaceOnUse" color-interpolation-filters="sRGB">
<feFlood flood-opacity="0" result="BackgroundImageFix"/>
<feColorMatrix in="SourceAlpha" type="matrix" values="0 0 0 0 0 0 0 0 0 0 0 0 0 0 0 0 0 0 127 0" result="hardAlpha"/>
<feOffset dy="4"/>
<feGaussianBlur stdDeviation="3.5"/>
<feComposite in2="hardAlpha" operator="out"/>
<feColorMatrix type="matrix" values="0 0 0 0 0.388451 0 0 0 0 0.459239 0 0 0 0 0.484722 0 0 0 0.8 0"/>
<feBlend mode="normal" in2="BackgroundImageFix" result="effect1_dropShadow_1_138"/>
<feBlend mode="normal" in="SourceGraphic" in2="effect1_dropShadow_1_138" result="shape"/>
</filter>
</defs>
</svg>
