<svg width="40" height="41" viewBox="0 0 40 41" fill="none" xmlns="http://www.w3.org/2000/svg">
<g id="Group 127">
<rect id="Rectangle 9" width="40" height="40" rx="12" fill="#A9C2CB"/>
<g id="chart-pie" filter="url(#filter0_d_2_86)">
<path id="combo shape" fill-rule="evenodd" clip-rule="evenodd" d="M21.9872 10.1974C25.9158 10.9895 29.0104 14.0842 29.8025 18.0128C30.0209 19.0955 29.1046 20 28 20H22C20.8954 20 20 19.1046 20 18V12C20 10.8954 20.9045 9.97913 21.9872 10.1974ZM10 21C10 16.1972 13.762 12.2731 18.5 12.0137V18C18.5 19.933 20.067 21.5 22 21.5H27.9863C27.7269 26.238 23.8028 30 19 30C14.0294 30 10 25.9706 10 21Z" fill="white"/>
</g>
</g>
<defs>
<filter id="filter0_d_2_86" x="3" y="7.16504" width="33.835" height="33.835" filterUnits="userSpaceOnUse" color-interpolation-filters="sRGB">
<feFlood flood-opacity="0" result="BackgroundImageFix"/>
<feColorMatrix in="SourceAlpha" type="matrix" values="0 0 0 0 0 0 0 0 0 0 0 0 0 0 0 0 0 0 127 0" result="hardAlpha"/>
<feOffset dy="4"/>
<feGaussianBlur stdDeviation="3.5"/>
<feComposite in2="hardAlpha" operator="out"/>
<feColorMatrix type="matrix" values="0 0 0 0 0.388451 0 0 0 0 0.459239 0 0 0 0 0.484722 0 0 0 0.8 0"/>
<feBlend mode="normal" in2="BackgroundImageFix" result="effect1_dropShadow_2_86"/>
<feBlend mode="normal" in="SourceGraphic" in2="effect1_dropShadow_2_86" result="shape"/>
</filter>
</defs>
</svg>
