<svg width="69" height="68" viewBox="0 0 69 68" fill="none" xmlns="http://www.w3.org/2000/svg">
<g id="OBJECTS" clip-path="url(#clip0_2_75)">
<path id="Vector" d="M34.5436 34.0036L1.8112 23.4995C3.98196 16.6292 8.3387 10.6326 14.235 6.39949C20.1313 2.16636 27.2531 -0.0777827 34.5436 2.8233e-06V34.0036Z" fill="#171E27" fill-opacity="0.6"/>
<path id="Vector_2" d="M34.5435 34.0036L54.7939 61.5094C47.4023 66.8095 38.1804 68.9943 29.1569 67.5832C20.1333 66.1721 12.0472 61.2807 6.67723 53.985C3.40384 49.6832 1.24699 44.6558 0.394944 39.3419C-0.457097 34.0279 0.0215791 28.5889 1.78919 23.4995L34.5435 34.0036Z" fill="#171E27" fill-opacity="0.8"/>
<path id="Vector_3" d="M34.5436 34.0035L54.7941 6.49768C58.4539 9.12152 61.5541 12.4314 63.9176 16.2382C66.2811 20.045 67.8616 24.2741 68.5689 28.684C69.2761 33.0938 69.0962 37.598 68.0394 41.9393C66.9826 46.2805 65.0697 50.3737 62.4099 53.985C60.3089 56.8904 57.7356 59.4328 54.7941 61.5094L34.5436 34.0035Z" fill="#A9C2CB" fill-opacity="0.6"/>
<path id="Vector_4" d="M34.5436 34.0036V-3.1708e-05C41.8313 -0.110918 48.9513 2.16106 54.7941 6.4618L34.5436 34.0036Z" fill="#171E27" fill-opacity="0.2"/>
</g>
<defs>
<clipPath id="clip0_2_75">
<rect width="69" height="68" fill="white"/>
</clipPath>
</defs>
</svg>
