<svg width="171" height="39" viewBox="0 0 171 39" fill="none" xmlns="http://www.w3.org/2000/svg">
<g id="OBJECTS" clip-path="url(#clip0_2_41)">
<path id="Vector" d="M1.03572 36.255C1.03572 36.255 3.77108 38.9386 12.8801 34.7641C21.9891 30.5896 17.439 37.9564 21.7324 37.1057C26.0258 36.255 26.2825 32.0279 30.1598 33.4662C34.0371 34.9045 33.5768 38.3423 36.7636 34.0187C39.9505 29.6951 40.1806 1.02612 40.1806 1.02612L42.4645 35.2289C42.4645 35.2289 51.3168 39.4035 57.9561 28.6603C64.5953 17.9171 69.5703 26.7221 70.0306 31.1948C70.4909 35.6675 77.1124 39.0877 80.733 34.1853C80.733 34.1853 83.2471 31.7911 86.2038 36.5708C89.1604 41.3504 92.5863 32.5366 92.5863 32.5366C92.5863 32.5366 96.9151 30.7826 98.5085 36.7199L104.431 1.04366L107.848 36.2726C110.194 36.806 112.652 36.5529 114.837 35.553C117.023 34.553 118.811 32.8629 119.922 30.7475C124.251 23.1352 130.633 20.6007 135.644 32.0893C135.644 32.0893 140.185 41.3153 150.507 33.4048C150.507 33.4048 156.916 28.7743 160.838 34.5975H169.92" stroke="url(#paint0_linear_2_41)" stroke-width="2.34" stroke-linecap="round" stroke-linejoin="round"/>
</g>
<defs>
<linearGradient id="paint0_linear_2_41" x1="9.81182e-07" y1="19.4957" x2="170.991" y2="19.4957" gradientUnits="userSpaceOnUse">
<stop stop-color="#171E27"/>
<stop offset="1" stop-color="#A9C2CB"/>
</linearGradient>
<clipPath id="clip0_2_41">
<rect width="171" height="39" fill="white"/>
</clipPath>
</defs>
</svg>
