<svg width="138" height="71" viewBox="0 0 138 71" fill="none" xmlns="http://www.w3.org/2000/svg">
<g id="OBJECTS" clip-path="url(#clip0_2_50)">
<path id="Vector" d="M137.638 0.396606H0.361572V70.5963H137.638V0.396606Z" stroke="#A9C2CB" stroke-miterlimit="10"/>
<path id="Vector_2" d="M14.333 0.396606V70.5963" stroke="#A9C2CB" stroke-miterlimit="10"/>
<path id="Vector_3" d="M30.2713 0.396606V70.5963" stroke="#A9C2CB" stroke-miterlimit="10"/>
<path id="Vector_4" d="M46.2169 0.396606V70.5963" stroke="#A9C2CB" stroke-miterlimit="10"/>
<path id="Vector_5" d="M62.1553 0.396606V70.5963" stroke="#A9C2CB" stroke-miterlimit="10"/>
<path id="Vector_6" d="M78.0937 0.396606V70.5963" stroke="#A9C2CB" stroke-miterlimit="10"/>
<path id="Vector_7" d="M94.0393 0.396606V70.5963" stroke="#A9C2CB" stroke-miterlimit="10"/>
<path id="Vector_8" d="M109.978 0.396606V70.5963" stroke="#A9C2CB" stroke-miterlimit="10"/>
<path id="Vector_9" d="M125.916 0.396606V70.5963" stroke="#A9C2CB" stroke-miterlimit="10"/>
<path id="Vector_10" d="M137.638 0.396606H0.361572" stroke="#A9C2CB" stroke-width="1.11" stroke-miterlimit="10"/>
<path id="Vector_11" d="M137.638 10.4261H0.361572" stroke="#A9C2CB" stroke-width="1.11" stroke-miterlimit="10"/>
<path id="Vector_12" d="M137.638 20.4557H0.361572" stroke="#A9C2CB" stroke-width="1.11" stroke-miterlimit="10"/>
<path id="Vector_13" d="M137.638 30.4852H0.361572" stroke="#A9C2CB" stroke-width="1.11" stroke-miterlimit="10"/>
<path id="Vector_14" d="M137.638 40.5148H0.361572" stroke="#A9C2CB" stroke-width="1.11" stroke-miterlimit="10"/>
<path id="Vector_15" d="M137.638 50.5371H0.361572" stroke="#A9C2CB" stroke-width="1.11" stroke-miterlimit="10"/>
<path id="Vector_16" d="M137.638 60.5667H0.361572" stroke="#A9C2CB" stroke-width="1.11" stroke-miterlimit="10"/>
<path id="Vector_17" d="M137.638 70.5962H0.361572" stroke="#A9C2CB" stroke-width="1.11" stroke-miterlimit="10"/>
<path id="Vector_18" d="M125.916 19.85H93.9814L62.3072 30.341L45.9638 60.2854L30.2858 40.4499L14.333 60.2854" stroke="url(#paint0_linear_2_50)" stroke-miterlimit="10"/>
<path id="Vector_19" d="M16.3795 60.2783C16.3795 60.6819 16.2595 61.0764 16.0346 61.412C15.8097 61.7475 15.4901 62.0091 15.1161 62.1635C14.7422 62.318 14.3307 62.3584 13.9337 62.2796C13.5367 62.2009 13.172 62.0065 12.8858 61.7212C12.5996 61.4358 12.4047 61.0722 12.3257 60.6764C12.2468 60.2806 12.2873 59.8703 12.4422 59.4974C12.5971 59.1246 12.8594 58.8059 13.196 58.5817C13.5325 58.3575 13.9282 58.2378 14.333 58.2378C14.8757 58.2378 15.3963 58.4528 15.7801 58.8354C16.1639 59.2181 16.3795 59.7371 16.3795 60.2783Z" fill="url(#paint1_linear_2_50)"/>
<path id="Vector_20" d="M30.2858 42.4977C31.4161 42.4977 32.3323 41.5841 32.3323 40.4571C32.3323 39.3302 31.4161 38.4166 30.2858 38.4166C29.1555 38.4166 28.2393 39.3302 28.2393 40.4571C28.2393 41.5841 29.1555 42.4977 30.2858 42.4977Z" fill="url(#paint2_linear_2_50)"/>
<path id="Vector_21" d="M48.0176 60.2782C48.019 60.6838 47.8996 61.0807 47.6745 61.4186C47.4494 61.7564 47.1287 62.02 46.7531 62.1759C46.3776 62.3318 45.964 62.3729 45.565 62.2941C45.1659 62.2153 44.7993 62.0202 44.5116 61.7334C44.224 61.4465 44.0282 61.081 43.9492 60.6831C43.8702 60.2852 43.9115 59.8729 44.0678 59.4984C44.2241 59.124 44.4885 58.8042 44.8274 58.5798C45.1662 58.3553 45.5643 58.2363 45.9711 58.2377C46.5133 58.2396 47.0327 58.4552 47.4161 58.8374C47.7995 59.2197 48.0157 59.7376 48.0176 60.2782Z" fill="url(#paint3_linear_2_50)"/>
<path id="Vector_22" d="M64.3537 30.341C64.3537 30.7445 64.2337 31.1391 64.0088 31.4746C63.7839 31.8102 63.4643 32.0717 63.0904 32.2261C62.7164 32.3806 62.3049 32.421 61.9079 32.3423C61.5109 32.2635 61.1463 32.0692 60.8601 31.7838C60.5739 31.4984 60.3789 31.1349 60.3 30.739C60.221 30.3432 60.2615 29.9329 60.4164 29.5601C60.5713 29.1872 60.8336 28.8685 61.1702 28.6443C61.5067 28.4201 61.9024 28.3004 62.3072 28.3004C62.5762 28.2995 62.8428 28.3516 63.0915 28.4538C63.3402 28.556 63.5662 28.7063 63.7564 28.896C63.9467 29.0856 64.0974 29.311 64.1999 29.559C64.3024 29.807 64.3547 30.0727 64.3537 30.341Z" fill="url(#paint4_linear_2_50)"/>
<path id="Vector_23" d="M93.9815 21.8905C95.1117 21.8905 96.028 20.9769 96.028 19.85C96.028 18.723 95.1117 17.8094 93.9815 17.8094C92.8512 17.8094 91.9349 18.723 91.9349 19.85C91.9349 20.9769 92.8512 21.8905 93.9815 21.8905Z" fill="url(#paint5_linear_2_50)"/>
<path id="Vector_24" d="M127.97 19.85C127.971 20.2566 127.851 20.6543 127.625 20.9926C127.399 21.3309 127.077 21.5944 126.7 21.7497C126.323 21.9049 125.909 21.9447 125.509 21.8642C125.109 21.7836 124.743 21.5863 124.456 21.2973C124.169 21.0083 123.975 20.6407 123.899 20.2414C123.822 19.8421 123.867 19.4292 124.026 19.0551C124.186 18.681 124.454 18.3628 124.795 18.141C125.137 17.9192 125.537 17.8038 125.945 17.8095C126.483 17.8171 126.997 18.0352 127.376 18.4168C127.755 18.7985 127.968 19.3132 127.97 19.85Z" fill="url(#paint6_linear_2_50)"/>
</g>
<defs>
<linearGradient id="paint0_linear_2_50" x1="14.0509" y1="40.2119" x2="125.916" y2="40.2119" gradientUnits="userSpaceOnUse">
<stop stop-color="#171E27"/>
<stop offset="1" stop-color="#A9C2CB"/>
</linearGradient>
<linearGradient id="paint1_linear_2_50" x1="12.2864" y1="60.2855" x2="16.3795" y2="60.2855" gradientUnits="userSpaceOnUse">
<stop stop-color="#171E27"/>
<stop offset="1" stop-color="#A9C2CB"/>
</linearGradient>
<linearGradient id="paint2_linear_2_50" x1="28.2393" y1="40.4571" x2="32.3323" y2="40.4571" gradientUnits="userSpaceOnUse">
<stop stop-color="#171E27"/>
<stop offset="1" stop-color="#A9C2CB"/>
</linearGradient>
<linearGradient id="paint3_linear_2_50" x1="43.9173" y1="60.2854" x2="48.0176" y2="60.2854" gradientUnits="userSpaceOnUse">
<stop stop-color="#A9C2CB"/>
<stop offset="0.0001" stop-color="#171E27"/>
<stop offset="1" stop-color="#A9C2CB"/>
</linearGradient>
<linearGradient id="paint4_linear_2_50" x1="60.2606" y1="30.3409" x2="64.3537" y2="30.3409" gradientUnits="userSpaceOnUse">
<stop stop-color="#171E27"/>
<stop offset="1" stop-color="#A9C2CB"/>
</linearGradient>
<linearGradient id="paint5_linear_2_50" x1="91.9277" y1="19.85" x2="96.028" y2="19.85" gradientUnits="userSpaceOnUse">
<stop stop-color="#171E27"/>
<stop offset="1" stop-color="#A9C2CB"/>
</linearGradient>
<linearGradient id="paint6_linear_2_50" x1="123.87" y1="19.85" x2="127.97" y2="19.85" gradientUnits="userSpaceOnUse">
<stop stop-color="#171E27"/>
<stop offset="1" stop-color="#A9C2CB"/>
</linearGradient>
<clipPath id="clip0_2_50">
<rect width="138" height="71" fill="white"/>
</clipPath>
</defs>
</svg>
